<svg xmlns="http://www.w3.org/2000/svg" version="1.1" xmlns:xlink="http://www.w3.org/1999/xlink" xmlns:svgjs="http://svgjs.dev/svgjs" width="1500" height="1500" viewBox="0 0 1500 1500"><rect width="1500" height="1500" fill="#ffffff"></rect><g transform="matrix(0.6666666666666666,0,0,0.6666666666666666,249.39393939393938,623.5277907824576)"><svg viewBox="0 0 396 100" data-background-color="#ffffff" preserveAspectRatio="xMidYMid meet" height="378" width="1500" xmlns="http://www.w3.org/2000/svg" xmlns:xlink="http://www.w3.org/1999/xlink"><g id="tight-bounds" transform="matrix(1,0,0,1,0.2400000000000091,0.18738461013589358)"><svg viewBox="0 0 395.52 99.62523077972818" height="99.62523077972818" width="395.52"><g><svg viewBox="0 0 582.2470317039727 146.65881599999997" height="99.62523077972818" width="395.52"><g transform="matrix(1,0,0,1,186.72703170397273,39.38422449640559)"><svg viewBox="0 0 395.52 67.8903670071888" height="67.8903670071888" width="395.52"><g id="textblocktransform"><svg viewBox="0 0 395.52 67.8903670071888" height="67.8903670071888" width="395.52" id="textblock"><g><svg viewBox="0 0 395.52 67.8903670071888" height="67.8903670071888" width="395.52"><g transform="matrix(1,0,0,1,0,0)"><svg width="395.52" viewBox="3.78 -33.48 198.2 34.03" height="67.8903670071888" data-palette-color="#095fb4"><path d="M15.65-10.63L6.48-10.63 6.48-14.08 15.55-14.08Q18.82-14.08 20.3-15.71 21.78-17.35 21.78-20.23L21.78-20.23 21.78-22.4Q21.78-25.33 20.31-26.93 18.85-28.53 15.6-28.53L15.6-28.53 6.45-28.53 6.45-31.95 15.68-31.95Q21.03-31.95 23.46-29.44 25.9-26.93 25.9-22.53L25.9-22.53 25.9-20.13Q25.9-15.68 23.44-13.15 20.98-10.63 15.65-10.63L15.65-10.63ZM7.88 0L3.78 0 3.78-31.95 7.85-31.95 7.85-13.05 7.88-11.2 7.88 0ZM41.57 0.55L41.57 0.55Q36 0.55 33.17-2.18 30.35-4.9 30.35-9.98L30.35-9.98 30.35-14.33Q30.35-19.48 32.97-22.26 35.6-25.05 40.65-25.05L40.65-25.05Q44.05-25.05 46.32-23.79 48.6-22.53 49.75-20.2 50.9-17.88 50.9-14.65L50.9-14.65 50.9-13.75Q50.9-12.95 50.84-12.15 50.77-11.35 50.67-10.58L50.67-10.58 46.95-10.58Q47-11.78 47.01-12.85 47.02-13.93 47.02-14.83L47.02-14.83Q47.02-17.05 46.31-18.59 45.6-20.13 44.19-20.94 42.77-21.75 40.65-21.75L40.65-21.75Q37.5-21.75 35.92-19.93 34.35-18.1 34.35-14.7L34.35-14.7 34.35-12.38 34.37-11.88 34.37-9.55Q34.37-8.03 34.82-6.8 35.27-5.58 36.23-4.69 37.2-3.8 38.69-3.34 40.17-2.88 42.22-2.88L42.22-2.88Q44.6-2.88 46.65-3.5 48.7-4.13 50.5-5.2L50.5-5.2 50.12-1.7Q48.5-0.68 46.35-0.06 44.2 0.55 41.57 0.55ZM49.82-10.58L32.47-10.58 32.47-13.63 49.82-13.63 49.82-10.58ZM74.8 0L70.77 0 70.95-5.93 70.8-6.55 70.8-14.33 70.82-15.75Q70.82-18.73 69.31-20.15 67.8-21.58 64.52-21.58L64.52-21.58Q61.9-21.58 59.71-20.83 57.52-20.08 55.82-19.07L55.82-19.07 56.2-22.53Q57.15-23.1 58.46-23.66 59.77-24.23 61.46-24.6 63.15-24.98 65.17-24.98L65.17-24.98Q67.8-24.98 69.63-24.34 71.47-23.7 72.61-22.5 73.75-21.3 74.27-19.6 74.8-17.9 74.8-15.8L74.8-15.8 74.8 0ZM62.37 0.53L62.37 0.53Q58.75 0.53 56.81-1.24 54.87-3 54.87-6.28L54.87-6.28 54.87-7Q54.87-10.38 56.96-12.04 59.05-13.7 63.6-14.35L63.6-14.35 71.32-15.45 71.55-12.5 64.09-11.43Q61.3-11.03 60.1-10.06 58.9-9.1 58.9-7.23L58.9-7.23 58.9-6.83Q58.9-4.9 60.08-3.88 61.27-2.85 63.65-2.85L63.65-2.85Q65.75-2.85 67.25-3.58 68.75-4.3 69.67-5.53 70.59-6.75 70.92-8.25L70.92-8.25 71.55-5.5 70.77-5.5Q70.42-3.9 69.46-2.53 68.5-1.15 66.77-0.31 65.05 0.53 62.37 0.53ZM101.69 0L96.84 0 87.19-11.38 84.62-11.38 84.62-14.53 87.19-14.53 96.44-24.4 101.24-24.4 90.17-12.63 90.17-13.6 101.69 0ZM85.02 0L80.99 0 80.99-33.13 85.02-33.13 85.02 0ZM130.51 0L123.89 0 114.16-31.95 118.51-31.95 126.89-3.15 127.49-3.15 135.89-31.95 140.21-31.95 130.51 0ZM148.86 0L144.81 0 144.81-24.4 148.86-24.4 148.86 0ZM146.84-28.4L146.84-28.4Q145.59-28.4 144.97-29.06 144.36-29.73 144.36-30.88L144.36-30.88 144.36-31Q144.36-32.18 144.97-32.83 145.59-33.48 146.84-33.48L146.84-33.48Q148.09-33.48 148.71-32.83 149.34-32.18 149.34-31L149.34-31 149.34-30.88Q149.34-29.7 148.71-29.05 148.09-28.4 146.84-28.4ZM167.58 0.53L167.58 0.53Q165.33 0.53 163.67-0.23 162.01-0.98 160.98-2.38 159.96-3.78 159.61-5.63L159.61-5.63 158.26-5.63 159.48-9.43Q159.61-7.23 160.52-5.76 161.43-4.3 162.96-3.58 164.48-2.85 166.41-2.85L166.41-2.85Q169.46-2.85 171.07-4.65 172.68-6.45 172.68-10L172.68-10 172.68-14.58Q172.68-18.05 171.06-19.85 169.43-21.65 166.33-21.65L166.33-21.65Q164.48-21.65 163.06-20.93 161.63-20.2 160.7-18.95 159.76-17.7 159.41-16.1L159.41-16.1 158.48-18.93 159.63-18.93Q160.01-20.6 160.97-21.96 161.93-23.33 163.61-24.14 165.28-24.95 167.76-24.95L167.76-24.95Q172.16-24.95 174.46-22.21 176.76-19.48 176.76-14.28L176.76-14.28 176.76-10.23Q176.76-4.98 174.42-2.23 172.08 0.53 167.58 0.53ZM159.61 0L155.56 0 155.56-33.13 159.58-33.13 159.58-25.18 159.46-18.18 159.48-17.4 159.48-7.2 159.43-5.9 159.61 0ZM192.66 0.55L192.66 0.55Q187.08 0.55 184.26-2.18 181.43-4.9 181.43-9.98L181.43-9.98 181.43-14.33Q181.43-19.48 184.06-22.26 186.68-25.05 191.73-25.05L191.73-25.05Q195.13-25.05 197.41-23.79 199.68-22.53 200.83-20.2 201.98-17.88 201.98-14.65L201.98-14.65 201.98-13.75Q201.98-12.95 201.92-12.15 201.86-11.35 201.76-10.58L201.76-10.58 198.03-10.58Q198.08-11.78 198.09-12.85 198.11-13.93 198.11-14.83L198.11-14.83Q198.11-17.05 197.39-18.59 196.68-20.13 195.27-20.94 193.86-21.75 191.73-21.75L191.73-21.75Q188.58-21.75 187.01-19.93 185.43-18.1 185.43-14.7L185.43-14.7 185.43-12.38 185.46-11.88 185.46-9.55Q185.46-8.03 185.91-6.8 186.36-5.58 187.32-4.69 188.28-3.8 189.77-3.34 191.26-2.88 193.31-2.88L193.31-2.88Q195.68-2.88 197.73-3.5 199.78-4.13 201.58-5.2L201.58-5.2 201.21-1.7Q199.58-0.68 197.43-0.06 195.28 0.55 192.66 0.55ZM200.91-10.58L183.56-10.58 183.56-13.63 200.91-13.63 200.91-10.58Z" opacity="1" transform="matrix(1,0,0,1,0,0)" fill="#095fb4" class="wordmark-text-0" data-fill-palette-color="primary" id="text-0"></path></svg></g></svg></g></svg></g></svg></g><g><svg viewBox="0 0 146.65881599999997 146.65881599999997" height="146.65881599999997" width="146.65881599999997"><g><svg viewBox="0 0 146.65881599999997 146.65881599999997" height="146.65881599999997" width="146.65881599999997"><g transform="matrix(1,0,0,1,38.76159356186995,52.81755138349037)"><svg viewBox="0 0 69.13562887626007 41.02371323301924" height="41.02371323301924" width="69.13562887626007"><g><svg xmlns="http://www.w3.org/2000/svg" xmlns:xlink="http://www.w3.org/1999/xlink" version="1.1" x="0" y="0" viewBox="8.811 24.796 85.35 50.645" enable-background="new 0 0 100 100" xml:space="preserve" height="41.02371323301924" width="69.13562887626007" class="icon-dxe-0" data-fill-palette-color="accent" id="dxe-0"><g fill="#095fb4" data-fill-palette-color="accent"><g fill="#095fb4" data-fill-palette-color="accent"><g fill="#095fb4" data-fill-palette-color="accent"><path d="M94.161 75.441H8.811L35.676 38.502 43.123 47.438 58.218 24.796zM14.703 72.441H88.353L58.296 30.086 43.391 52.444 35.838 43.38z" fill="#095fb4" data-fill-palette-color="accent"></path></g><g fill="#095fb4" data-fill-palette-color="accent"><polygon points="24.97,68.823 22.544,67.059 35.666,49.015 43.901,58.721 41.613,60.661 35.848,53.867    " fill="#095fb4" data-fill-palette-color="accent"></polygon></g><g fill="#095fb4" data-fill-palette-color="accent"><polygon points="66.009,52.273 58.298,40.707 52.029,50.736 49.485,49.146 58.216,35.175 68.505,50.609    " fill="#095fb4" data-fill-palette-color="accent"></polygon></g></g></g></svg></g></svg></g><g id="text-0"><path d="M9.477 50.762l-1.081 3.271-1.226-0.405 1.069-3.233c0.257-0.778 0.247-1.406-0.03-1.883-0.269-0.481-0.744-0.835-1.427-1.06v0l-0.781-0.259c-0.695-0.23-1.289-0.234-1.784-0.011-0.494 0.222-0.869 0.719-1.124 1.49v0l-1.079 3.262-1.215-0.402 1.084-3.281c0.421-1.274 1.027-2.101 1.816-2.482 0.783-0.383 1.699-0.402 2.748-0.055v0l0.849 0.281c1.061 0.351 1.795 0.918 2.199 1.701 0.405 0.783 0.399 1.805-0.018 3.066zM12.344 54.782l-0.485 1.467-11.376-3.762 0.481-1.457 6.726 2.224 0.669 0.21z" fill="#095fb4" data-fill-palette-color="accent"></path><path d="M23.667 33.852v0c-0.852 1.106-1.761 1.731-2.728 1.875-0.972 0.141-1.96-0.176-2.963-0.949v0l-1.297-0.999c-1.02-0.786-1.605-1.652-1.757-2.598-0.146-0.942 0.165-1.913 0.935-2.911v0c0.517-0.671 1.072-1.137 1.666-1.398 0.6-0.256 1.219-0.322 1.859-0.197 0.63 0.126 1.264 0.435 1.903 0.927v0l0.273 0.211c0.156 0.12 0.31 0.247 0.463 0.382 0.147 0.131 0.291 0.267 0.43 0.408v0l-0.856 1.111c-0.233-0.197-0.452-0.379-0.658-0.545-0.215-0.165-0.411-0.316-0.588-0.453v0c-0.44-0.339-0.867-0.557-1.28-0.653-0.413-0.096-0.81-0.064-1.19 0.097-0.376 0.155-0.725 0.442-1.048 0.86v0c-0.48 0.623-0.657 1.23-0.532 1.823 0.116 0.594 0.512 1.151 1.188 1.672v0l0.684 0.527 0.159 0.11 0.692 0.534c0.301 0.232 0.607 0.395 0.919 0.489 0.312 0.095 0.629 0.117 0.951 0.065 0.326-0.057 0.646-0.195 0.96-0.414 0.319-0.225 0.635-0.541 0.95-0.949v0c0.364-0.472 0.639-0.957 0.826-1.455 0.191-0.503 0.315-1.014 0.373-1.534v0l0.958 0.905c-0.044 0.479-0.17 0.981-0.377 1.505-0.209 0.515-0.513 1.033-0.915 1.554zM22.252 28.861l-3.97 5.152-0.909-0.701 3.97-5.152z" fill="#095fb4" data-fill-palette-color="accent"></path><path d="M41.445 18.176l-1.25 0.838-1.189-1.883-0.172-0.166-1.624-2.423-0.286-0.444c-0.415-0.619-0.88-0.972-1.395-1.059-0.511-0.081-1.107 0.106-1.789 0.563v0c-0.546 0.366-0.991 0.779-1.335 1.238-0.354 0.458-0.638 0.909-0.854 1.355v0l-0.6-1.151c0.118-0.25 0.275-0.527 0.471-0.83 0.191-0.299 0.434-0.605 0.73-0.918 0.302-0.316 0.661-0.614 1.078-0.894v0c0.546-0.366 1.055-0.61 1.528-0.731 0.469-0.127 0.907-0.143 1.314-0.049 0.402 0.089 0.776 0.275 1.12 0.558 0.341 0.277 0.658 0.635 0.953 1.075v0zM37.686 20.928v0c-0.754 0.506-1.454 0.709-2.098 0.612-0.65-0.094-1.204-0.482-1.661-1.163v0l-0.147-0.219c-0.472-0.703-0.606-1.372-0.403-2.006 0.199-0.639 0.727-1.344 1.582-2.113v0l2.179-1.95 0.693 0.869-2.101 1.886c-0.529 0.477-0.849 0.9-0.96 1.268-0.116 0.363-0.043 0.739 0.217 1.127v0l0.085 0.126c0.268 0.4 0.597 0.623 0.988 0.671 0.385 0.052 0.826-0.089 1.321-0.42v0c0.433-0.291 0.757-0.617 0.97-0.981 0.208-0.359 0.322-0.73 0.344-1.111 0.022-0.382-0.038-0.75-0.178-1.105v0l0.774 0.717-0.245 0.164c0.149 0.381 0.219 0.783 0.209 1.206-0.005 0.419-0.13 0.834-0.377 1.244-0.238 0.412-0.635 0.805-1.192 1.178z" fill="#095fb4" data-fill-palette-color="accent"></path><path d="M61.549 10.718l-1.756 0.476-4.61-3.172-0.932 0.253-0.308-1.138 0.931-0.252 2.376-4.478 1.736-0.471-2.856 5.345-0.096-0.353zM55.507 12.358l-1.452 0.393-3.253-11.985 1.452-0.394z" fill="#095fb4" data-fill-palette-color="accent"></path><path d="M94.984 13.658l-2.364-0.782 0.298-12.522 1.553 0.514-0.41 11.243 0.212 0.07 6.383-9.267 1.534 0.507z" fill="#095fb4" data-fill-palette-color="accent"></path><path d="M111.283 22.174l-1.245-0.862 5.21-7.519 1.245 0.863zM116.723 12.985v0c-0.256-0.178-0.399-0.376-0.429-0.594-0.032-0.228 0.034-0.459 0.195-0.693v0l0.029-0.041c0.166-0.239 0.359-0.382 0.58-0.427 0.215-0.049 0.451 0.016 0.707 0.193v0c0.256 0.178 0.402 0.377 0.438 0.6 0.041 0.226-0.021 0.459-0.188 0.699v0l-0.029 0.041c-0.166 0.239-0.362 0.38-0.588 0.421-0.221 0.045-0.459-0.021-0.715-0.199z" fill="#095fb4" data-fill-palette-color="accent"></path><path d="M124.224 35.414v0c-0.355-0.445-0.589-0.886-0.703-1.324-0.109-0.441-0.106-0.873 0.009-1.293 0.11-0.417 0.32-0.805 0.631-1.166v0l-0.317-0.397 1.405-0.521c-0.412 0.363-0.69 0.749-0.833 1.157-0.143 0.408-0.167 0.818-0.074 1.228 0.093 0.411 0.29 0.804 0.589 1.181v0c0.477 0.599 1.018 0.913 1.622 0.943 0.603 0.039 1.252-0.217 1.946-0.77v0l1.343-1.07c0.678-0.54 1.066-1.109 1.163-1.705 0.102-0.601-0.09-1.206-0.575-1.816v0c-0.287-0.36-0.612-0.621-0.975-0.783-0.367-0.167-0.746-0.246-1.137-0.237-0.387 0.014-0.765 0.111-1.133 0.291v0l0.612-0.929 0.266 0.334c0.388-0.188 0.79-0.291 1.207-0.312 0.418-0.03 0.837 0.056 1.258 0.259 0.421 0.202 0.823 0.544 1.207 1.026v0c0.684 0.859 0.937 1.726 0.761 2.603-0.177 0.877-0.774 1.72-1.791 2.531v0l-1.193 0.95c-1.023 0.815-1.986 1.209-2.89 1.184-0.898-0.029-1.698-0.484-2.398-1.364zM122.507 32.948l-0.943-1.184 9.715-7.737 0.937 1.177-2.329 1.855-2.077 1.601-0.224 0.192-2.989 2.38-0.395 0.288z" fill="#095fb4" data-fill-palette-color="accent"></path><path d="M133.764 53.673v0c-0.464-1.316-0.494-2.419-0.09-3.31 0.411-0.892 1.214-1.549 2.408-1.97v0l1.543-0.545c1.214-0.428 2.259-0.449 3.137-0.061 0.87 0.39 1.515 1.179 1.934 2.367v0c0.282 0.799 0.37 1.518 0.266 2.159-0.111 0.643-0.393 1.198-0.845 1.667-0.448 0.46-1.053 0.824-1.813 1.092v0l-0.326 0.115c-0.185 0.065-0.376 0.125-0.572 0.181-0.19 0.053-0.382 0.099-0.577 0.138v0l-0.466-1.322c0.292-0.089 0.564-0.174 0.815-0.256 0.256-0.09 0.489-0.172 0.7-0.246v0c0.524-0.185 0.939-0.425 1.244-0.72 0.306-0.295 0.494-0.645 0.567-1.051 0.074-0.4 0.024-0.849-0.153-1.347v0c-0.262-0.741-0.675-1.22-1.24-1.438-0.561-0.226-1.244-0.197-2.049 0.087v0l-0.815 0.288-0.178 0.073-0.825 0.291c-0.358 0.126-0.661 0.294-0.91 0.505-0.249 0.21-0.44 0.464-0.572 0.762-0.13 0.304-0.188 0.648-0.175 1.031 0.015 0.39 0.109 0.827 0.28 1.313v0c0.198 0.562 0.456 1.057 0.772 1.485 0.318 0.434 0.68 0.816 1.084 1.148v0l-1.28 0.311c-0.378-0.298-0.731-0.676-1.058-1.135-0.319-0.455-0.587-0.993-0.806-1.613zM138.721 55.2l-2.164-6.134 1.083-0.382 2.164 6.134z" fill="#095fb4" data-fill-palette-color="accent"></path><path d="M8.434 97.76l-1.142-3.422 1.282-0.428 1.13 3.383c0.272 0.816 0.672 1.34 1.199 1.572 0.534 0.229 1.157 0.225 1.87-0.014v0l0.81-0.27c0.726-0.242 1.227-0.613 1.504-1.113 0.278-0.493 0.282-1.144 0.012-1.954v0l-1.139-3.413 1.273-0.424 1.148 3.441c0.444 1.33 0.455 2.402 0.033 3.214-0.422 0.812-1.179 1.401-2.271 1.765v0l-0.897 0.3c-1.105 0.369-2.075 0.353-2.908-0.047-0.827-0.403-1.462-1.266-1.904-2.59zM3.504 96.18l-0.509-1.523 11.906-3.973 0.505 1.513-7.047 2.352-0.681 0.238z" fill="#095fb4" data-fill-palette-color="accent"></path><path d="M16.115 120.239v0c-0.897-1.156-1.291-2.244-1.182-3.264 0.109-1.02 0.691-1.938 1.746-2.756v0l1.349-1.047c1.065-0.826 2.097-1.194 3.095-1.101 0.996 0.102 1.9 0.674 2.709 1.718v0c0.544 0.701 0.868 1.389 0.971 2.064 0.109 0.67 0.015 1.313-0.28 1.927-0.299 0.609-0.783 1.174-1.452 1.693v0l-0.281 0.218c-0.161 0.125-0.328 0.246-0.502 0.364-0.178 0.113-0.354 0.223-0.528 0.332v0l-0.897-1.156c0.25-0.186 0.49-0.363 0.719-0.533 0.219-0.17 0.423-0.328 0.611-0.473v0c0.46-0.357 0.792-0.731 0.996-1.12 0.205-0.399 0.278-0.808 0.22-1.225-0.057-0.427-0.256-0.86-0.597-1.3v0c-0.507-0.653-1.077-0.996-1.71-1.027-0.628-0.036-1.295 0.22-2.002 0.768v0l-0.723 0.561-0.146 0.127-0.723 0.56c-0.316 0.245-0.562 0.513-0.739 0.805-0.186 0.29-0.294 0.605-0.322 0.945-0.024 0.345 0.034 0.707 0.174 1.086 0.145 0.385 0.381 0.789 0.709 1.213v0c0.382 0.492 0.801 0.9 1.258 1.223 0.457 0.323 0.943 0.585 1.458 0.785v0l-1.177 0.721c-0.476-0.171-0.95-0.429-1.423-0.774-0.468-0.349-0.911-0.794-1.331-1.334zM21.555 120.122l-4.18-5.388 0.947-0.735 4.18 5.388z" fill="#095fb4" data-fill-palette-color="accent"></path><path d="M36.613 137.719l-1.32-0.879 1.349-1.897 0.085-0.237 1.695-2.546 0.318-0.46c0.432-0.649 0.587-1.237 0.467-1.765-0.126-0.532-0.547-1.036-1.263-1.513v0c-0.57-0.379-1.149-0.647-1.737-0.802-0.583-0.152-1.133-0.242-1.652-0.27v0l0.882-1.049c0.286 0.011 0.614 0.05 0.983 0.118 0.366 0.073 0.761 0.189 1.184 0.349 0.419 0.165 0.851 0.396 1.298 0.692v0c0.57 0.379 1.01 0.77 1.319 1.172 0.307 0.408 0.497 0.824 0.573 1.249 0.072 0.43 0.042 0.866-0.089 1.308-0.129 0.451-0.346 0.905-0.651 1.361v0zM32.431 135.179v0c-0.79-0.526-1.268-1.121-1.436-1.786-0.168-0.665-0.013-1.356 0.464-2.072v0l0.158-0.237c0.488-0.733 1.081-1.128 1.778-1.185 0.701-0.062 1.595 0.166 2.681 0.686v0l2.758 1.323-0.566 1.015-2.668-1.275c-0.669-0.315-1.206-0.457-1.609-0.425-0.398 0.036-0.735 0.26-1.009 0.672v0l-0.085 0.127c-0.282 0.423-0.366 0.831-0.253 1.223 0.109 0.398 0.423 0.77 0.942 1.116v0c0.457 0.304 0.901 0.486 1.334 0.546 0.432 0.06 0.84 0.022 1.223-0.114 0.374-0.134 0.706-0.34 0.998-0.617v0l-0.394 1.031-0.254-0.169c-0.306 0.301-0.666 0.529-1.079 0.686-0.411 0.166-0.866 0.213-1.364 0.142-0.492-0.067-1.032-0.296-1.619-0.687z" fill="#095fb4" data-fill-palette-color="accent"></path><path d="M59.548 146.304l-1.846-0.495-2.503-5.301-0.972-0.26 0.319-1.188 0.972 0.261 4.52-2.808 1.816 0.487-5.4 3.34 0.1-0.373zM53.216 144.606l-1.521-0.408 3.369-12.564 1.522 0.408z" fill="#095fb4" data-fill-palette-color="accent"></path><path d="M97.961 143.093l-2.47 0.816-7.565-10.72 1.621-0.535 6.674 9.708 0.222-0.073-0.411-11.777 1.612-0.532z" fill="#095fb4" data-fill-palette-color="accent"></path><path d="M116.55 133.465l-1.314 0.906-5.439-7.891 1.314-0.906zM109.564 124.727v0c-0.273 0.188-0.522 0.257-0.747 0.206-0.234-0.053-0.435-0.202-0.604-0.447v0l-0.029-0.042c-0.177-0.257-0.246-0.501-0.209-0.732 0.032-0.228 0.185-0.436 0.458-0.625v0c0.268-0.185 0.517-0.253 0.747-0.206 0.23 0.047 0.433 0.199 0.61 0.456v0l0.029 0.041c0.173 0.251 0.241 0.492 0.203 0.725-0.038 0.232-0.191 0.44-0.458 0.624z" fill="#095fb4" data-fill-palette-color="accent"></path><path d="M131.719 118.728v0c-0.369 0.46-0.766 0.797-1.19 1.012-0.425 0.215-0.865 0.314-1.32 0.296-0.451-0.023-0.893-0.148-1.328-0.376v0l-0.331 0.412-0.865-1.308c0.47 0.334 0.928 0.528 1.372 0.581 0.454 0.052 0.88-0.019 1.278-0.212 0.398-0.193 0.754-0.485 1.068-0.876v0c0.501-0.623 0.698-1.247 0.591-1.872-0.097-0.626-0.51-1.231-1.24-1.816v0l-1.394-1.12c-0.713-0.573-1.386-0.839-2.018-0.799-0.637 0.036-1.21 0.371-1.719 1.004v0c-0.301 0.375-0.497 0.77-0.586 1.185-0.085 0.409-0.075 0.813 0.031 1.211 0.101 0.394 0.285 0.759 0.553 1.096v0l-1.094-0.422 0.28-0.349c-0.274-0.351-0.473-0.736-0.596-1.157-0.123-0.42-0.129-0.868-0.017-1.342 0.108-0.47 0.365-0.958 0.773-1.466v0c0.721-0.898 1.548-1.359 2.48-1.384 0.938-0.02 1.937 0.396 2.999 1.249v0l1.244 0.999c1.072 0.861 1.698 1.754 1.876 2.679 0.174 0.93-0.108 1.855-0.847 2.775zM129.601 121.041l-0.993 1.236-10.143-8.145 0.987-1.229 2.432 1.954 2.108 1.758 0.244 0.183 3.13 2.514 0.384 0.334z" fill="#095fb4" data-fill-palette-color="accent"></path><path d="M142.912 97.674v0c-0.492 1.378-1.198 2.295-2.116 2.752-0.918 0.456-2.006 0.46-3.263 0.011v0l-1.607-0.575c-1.27-0.453-2.134-1.125-2.594-2.016-0.45-0.895-0.453-1.964-0.008-3.208v0c0.299-0.836 0.704-1.479 1.217-1.929 0.507-0.452 1.099-0.719 1.776-0.801 0.675-0.076 1.411 0.029 2.208 0.314v0l0.335 0.12c0.191 0.068 0.384 0.144 0.577 0.227 0.191 0.09 0.379 0.178 0.563 0.266v0l-0.492 1.379c-0.291-0.111-0.57-0.218-0.836-0.32-0.262-0.093-0.504-0.18-0.727-0.26v0c-0.549-0.196-1.042-0.275-1.48-0.237-0.447 0.042-0.83 0.2-1.151 0.473-0.33 0.278-0.588 0.679-0.775 1.202v0c-0.278 0.778-0.26 1.443 0.054 1.994 0.308 0.549 0.883 0.974 1.725 1.275v0l0.861 0.307 0.186 0.056 0.861 0.307c0.376 0.134 0.735 0.198 1.076 0.19 0.345 0.001 0.668-0.078 0.969-0.236 0.304-0.165 0.578-0.409 0.823-0.732 0.247-0.329 0.461-0.746 0.64-1.249v0c0.21-0.587 0.328-1.16 0.355-1.719 0.027-0.559-0.014-1.109-0.122-1.652v0l1.241 0.605c0.112 0.493 0.149 1.032 0.113 1.616-0.042 0.582-0.179 1.195-0.409 1.84zM139.887 93.151l-2.293 6.422-1.13-0.403 2.294-6.422z" fill="#095fb4" data-fill-palette-color="accent"></path><path d="M0 73.943c0-2.648 2.147-4.795 4.795-4.795 2.648 0 4.795 2.147 4.794 4.795 0 2.648-2.147 4.795-4.794 4.795-2.648 0-4.795-2.147-4.795-4.795z" fill="#095fb4" data-fill-palette-color="accent"></path><path d="M137.07 73.943c0-2.648 2.147-4.795 4.794-4.795 2.648 0 4.795 2.147 4.795 4.795 0 2.648-2.147 4.795-4.795 4.795-2.648 0-4.795-2.147-4.794-4.795z" fill="#095fb4" data-fill-palette-color="accent"></path></g><g id="text-1"></g></svg></g></svg></g></svg></g><defs></defs></svg><rect width="395.52" height="99.62523077972818" fill="none" stroke="none" visibility="hidden"></rect></g></svg></g></svg>